<?xml version="1.0" encoding="UTF-8"?>
<svg xmlns="http://www.w3.org/2000/svg" xmlns:xlink="http://www.w3.org/1999/xlink" viewBox="0 0 1161.06 391.08">
  <defs>
    <style>
      .cls-1 {
        fill: none;
      }

      .cls-2 {
        fill: url(#radial-gradient);
        opacity: .8;
      }

      .cls-2, .cls-3, .cls-4, .cls-5, .cls-6, .cls-7 {
        mix-blend-mode: multiply;
      }

      .cls-3 {
        fill: url(#linear-gradient-4);
      }

      .cls-8 {
        isolation: isolate;
      }

      .cls-4 {
        fill: url(#linear-gradient-2);
        opacity: .2;
      }

      .cls-5 {
        fill: url(#linear-gradient-3);
      }

      .cls-5, .cls-9 {
        opacity: .3;
      }

      .cls-10 {
        fill: #fff;
      }

      .cls-11 {
        fill: #e1eaf5;
        opacity: .95;
      }

      .cls-12, .cls-7 {
        fill: #9d66cc;
      }

      .cls-13 {
        opacity: .7;
      }

      .cls-14 {
        fill: #9cbadd;
      }

      .cls-6 {
        fill: url(#linear-gradient);
        opacity: .1;
      }

      .cls-15 {
        fill: #004eaa;
      }

      .cls-16 {
        clip-path: url(#clippath);
      }

      .cls-17 {
        fill: #c7d8eb;
      }
    </style>
    <radialGradient id="radial-gradient" cx="1018.06" cy="123.89" fx="1018.06" fy="123.89" r="78.73" gradientTransform="translate(0 -247.77) scale(1 3)" gradientUnits="userSpaceOnUse">
      <stop offset=".55" stop-color="#f2f2f2"/>
      <stop offset=".88" stop-color="#9d66cc"/>
    </radialGradient>
    <linearGradient id="linear-gradient" x1="925.69" y1="282.07" x2="1118.51" y2="120.28" gradientUnits="userSpaceOnUse">
      <stop offset="0" stop-color="#0063c3"/>
      <stop offset="0" stop-color="#0b69c5"/>
      <stop offset=".05" stop-color="#438cd2"/>
      <stop offset=".1" stop-color="#75aade"/>
      <stop offset=".14" stop-color="#9fc4e8"/>
      <stop offset=".19" stop-color="#c2d9f0"/>
      <stop offset=".24" stop-color="#dceaf6"/>
      <stop offset=".28" stop-color="#eff5fb"/>
      <stop offset=".33" stop-color="#fbfcfe"/>
      <stop offset=".38" stop-color="#fff"/>
    </linearGradient>
    <clipPath id="clippath">
      <path class="cls-1" d="M1018.19,361.37c-104.14-50.96-122.39-99.49-122.39-226.22,79.85-29.29,165.44-29.29,244.53,0,0,126.73-18.2,175.26-122.14,226.22Z"/>
    </clipPath>
    <linearGradient id="linear-gradient-2" x1="1016.71" y1="165.55" x2="953.94" y2="337.99" gradientUnits="userSpaceOnUse">
      <stop offset=".38" stop-color="#fff"/>
      <stop offset=".9" stop-color="#004eaa"/>
    </linearGradient>
    <linearGradient id="linear-gradient-3" x1="908.08" y1="241.08" x2="1065.58" y2="241.08" gradientUnits="userSpaceOnUse">
      <stop offset=".12" stop-color="#fff"/>
      <stop offset=".66" stop-color="#1b1464"/>
    </linearGradient>
    <linearGradient id="linear-gradient-4" x1="957.95" y1="236.68" x2="1059.28" y2="236.68" xlink:href="#linear-gradient-2"/>
  </defs>
  <g class="cls-8">
    <g id="Layer_2" data-name="Layer 2">
      <g id="Layer_1-2" data-name="Layer 1">
        <g>
          <g>
            <g>
              <polygon class="cls-12" points="949.11 341.59 949.11 352.09 614.9 352.09 617.22 341.59 949.11 341.59"/>
              <polygon class="cls-12" points="949.11 341.59 949.11 352.09 614.9 352.09 617.22 341.59 949.11 341.59"/>
              <polygon class="cls-10" points="0 341.59 604.86 341.59 602.54 352.1 0 352.1 0 341.59"/>
            </g>
            <path class="cls-7" d="M892.65,341.59c3.16,3.59,6.5,7.09,10.05,10.5h46.41v-10.5h-56.46Z"/>
            <g>
              <path class="cls-10" d="M162.04,196.61h-10.53l-5.51-13.32h-18.48l-5.51,13.32h-10.53l21.48-51.62h7.46l21.62,51.62ZM142.58,174.29l-5.86-15.83h-.14l-5.86,15.83h11.86Z"/>
              <path class="cls-10" d="M238.28,177.78c0,5.21-1,9.28-3,12.21-1.72,2.42-3.97,4.3-6.73,5.65-2.77,1.35-5.66,2.02-8.68,2.02s-5.85-.65-8.61-1.95c-2.77-1.3-5.01-3.11-6.73-5.44-2.14-2.84-3.21-7-3.21-12.49v-32.78h9.56v32.78c0,7.3,2.98,10.95,8.93,10.95s8.93-3.65,8.93-10.95v-32.78h9.56v32.78Z"/>
              <path class="cls-10" d="M309.4,153.92h-12.88v42.69h-9.56v-42.69h-12.81v-8.93h35.24v8.93Z"/>
              <path class="cls-10" d="M397.45,170.94c0,7.39-2.64,13.7-7.92,18.9-5.28,5.21-11.64,7.81-19.08,7.81s-13.8-2.6-19.08-7.81c-5.28-5.21-7.92-11.51-7.92-18.9s2.63-13.86,7.88-19.11c5.25-5.25,11.63-7.88,19.11-7.88s13.86,2.63,19.11,7.88c5.25,5.26,7.88,11.63,7.88,19.11ZM387.9,170.87c0-4.93-1.69-9.16-5.06-12.7-3.37-3.53-7.5-5.3-12.38-5.3s-9.01,1.77-12.38,5.3c-3.37,3.54-5.06,7.77-5.06,12.7s1.7,9.02,5.09,12.56c3.39,3.53,7.51,5.3,12.35,5.3s8.95-1.77,12.35-5.3c3.39-3.53,5.09-7.72,5.09-12.56Z"/>
              <path class="cls-10" d="M474.05,196.61h-11.58l-13.67-19.74h-.14v19.74h-9.56v-51.62h15.83c5.49,0,9.67,1.16,12.56,3.49,4.05,3.26,6.07,7.42,6.07,12.49,0,2.23-.44,4.48-1.32,6.73-.88,2.26-2.09,4.13-3.63,5.62-2.09,1.95-4.95,3.37-8.58,4.25l14.02,19.04ZM464,161.73c0-2.51-.88-4.44-2.65-5.79-1.77-1.35-3.95-2.02-6.56-2.02h-6.14v15.76h6.14c2.7,0,4.91-.67,6.63-2.02,1.72-1.35,2.58-3.32,2.58-5.93Z"/>
              <path class="cls-10" d="M524.55,196.61h-9.56v-51.62h9.56v51.62Z"/>
              <path class="cls-10" d="M610.2,170.94c0,4.51-1.1,8.84-3.31,12.97-2.21,4.14-5.22,7.25-9.03,9.35-4.05,2.23-9.77,3.35-17.16,3.35h-11.93v-51.62h11.72c9.58,0,16.65,2,21.2,6,2.7,2.37,4.79,5.35,6.28,8.93,1.49,3.58,2.23,7.25,2.23,11.02ZM600.65,170.94c0-2.37-.48-4.7-1.43-6.98-.95-2.28-2.31-4.19-4.08-5.72-1.49-1.35-3.27-2.35-5.34-3-2.07-.65-3.85-1.03-5.34-1.15-1.49-.12-3.53-.17-6.14-.17v33.76h2.02c5.39,0,9.58-.84,12.56-2.51,2.42-1.35,4.31-3.32,5.69-5.93,1.37-2.6,2.06-5.37,2.06-8.3Z"/>
              <path class="cls-10" d="M699.14,196.61h-10.53l-5.51-13.32h-18.48l-5.51,13.32h-10.53l21.48-51.62h7.46l21.62,51.62ZM679.68,174.29l-5.86-15.83h-.14l-5.86,15.83h11.86Z"/>
              <path class="cls-10" d="M780.4,170.94c0,4.51-1.1,8.84-3.31,12.97-2.21,4.14-5.22,7.25-9.03,9.35-4.05,2.23-9.77,3.35-17.16,3.35h-11.93v-51.62h11.72c9.58,0,16.65,2,21.2,6,2.7,2.37,4.79,5.35,6.28,8.93,1.49,3.58,2.23,7.25,2.23,11.02ZM770.85,170.94c0-2.37-.48-4.7-1.43-6.98-.95-2.28-2.31-4.19-4.08-5.72-1.49-1.35-3.27-2.35-5.34-3-2.07-.65-3.85-1.03-5.34-1.15-1.49-.12-3.53-.17-6.14-.17v33.76h2.02c5.39,0,9.58-.84,12.56-2.51,2.42-1.35,4.31-3.32,5.69-5.93,1.37-2.6,2.06-5.37,2.06-8.3Z"/>
              <path class="cls-10" d="M122.37,265.74c-2.08,8.5-6.47,15.34-13.18,20.52-6.71,5.19-14.45,7.78-23.2,7.78-10.51,0-19.46-3.61-26.85-10.85-7.39-7.23-11.09-16.1-11.09-26.6s3.66-19.34,10.99-26.51c7.33-7.17,16.24-10.75,26.75-10.75,6.55,0,12.58,1.46,18.09,4.38,5.51,2.92,10.05,7.1,13.62,12.55,2.59,3.89,4.21,7.82,4.86,11.77h-19.26c-1.43-3.76-3.7-6.79-6.81-9.1-3.11-2.3-6.65-3.45-10.6-3.45-5.64,0-10.26,2.06-13.86,6.18-3.6,4.12-5.4,9.06-5.4,14.83s1.8,10.78,5.4,15.03c3.6,4.25,8.25,6.37,13.96,6.37,3.89,0,7.33-1.1,10.31-3.31,2.98-2.2,5.32-5.16,7-8.85h19.26Z"/>
              <path class="cls-10" d="M174.07,292.69h-42.17v-71.98h42.17v16.15h-24.56v11.19h21.69v16.15h-21.69v12.35h24.56v16.15Z"/>
              <path class="cls-10" d="M240.9,292.69h-21.01l-16.63-23.25h-.19v23.25h-17.61v-71.98h22.76c3.24,0,5.89.07,7.93.19,2.04.13,4.44.6,7.2,1.41,2.76.81,5.11,1.99,7.05,3.55,5.9,4.73,8.85,11.28,8.85,19.65,0,5.71-1.6,10.69-4.82,14.93-3.21,4.25-7.57,6.83-13.08,7.73l19.55,24.51ZM221.64,246.58c0-3.31-1.12-5.75-3.36-7.34-2.24-1.59-5.07-2.38-8.51-2.38h-6.71v20.04h6.52c3.7,0,6.63-.84,8.8-2.53,2.17-1.69,3.26-4.28,3.26-7.78Z"/>
              <path class="cls-10" d="M292.07,236.85h-16.29v55.83h-18.38v-55.83h-16.39v-16.15h51.07v16.15Z"/>
              <path class="cls-10" d="M317.85,292.69h-18.38v-71.98h18.38v71.98Z"/>
              <path class="cls-10" d="M372.37,236.85h-23.88v12.26h23.1v16.15h-23.1v27.43h-17.61v-71.98h41.49v16.15Z"/>
              <path class="cls-10" d="M400.68,292.69h-18.38v-71.98h18.38v71.98Z"/>
              <path class="cls-10" d="M485.11,265.74c-2.08,8.5-6.47,15.34-13.18,20.52-6.71,5.19-14.45,7.78-23.2,7.78-10.51,0-19.46-3.61-26.85-10.85-7.39-7.23-11.09-16.1-11.09-26.6s3.66-19.34,10.99-26.51c7.33-7.17,16.24-10.75,26.75-10.75,6.55,0,12.58,1.46,18.09,4.38,5.51,2.92,10.05,7.1,13.62,12.55,2.59,3.89,4.21,7.82,4.86,11.77h-19.26c-1.43-3.76-3.7-6.79-6.81-9.1-3.11-2.3-6.65-3.45-10.6-3.45-5.64,0-10.26,2.06-13.86,6.18-3.6,4.12-5.4,9.06-5.4,14.83s1.8,10.78,5.4,15.03c3.6,4.25,8.25,6.37,13.96,6.37,3.89,0,7.33-1.1,10.31-3.31,2.98-2.2,5.32-5.16,7-8.85h19.26Z"/>
              <path class="cls-10" d="M557.09,292.69h-19.94l-3.5-10.41h-25l-3.79,10.41h-19.75l28.89-71.98h14.49l28.6,71.98ZM528.78,267.69l-7.39-24.61h-.29l-7.39,24.61h15.08Z"/>
              <path class="cls-10" d="M625.76,256.5c0,11.74-3.21,20.7-9.63,26.9-6.42,6.19-15.56,9.29-27.43,9.29h-25.19v-71.98h23.83c7.33,0,13.5.92,18.53,2.77,5.02,1.85,9.45,5.4,13.28,10.65,4.41,6.16,6.61,13.62,6.61,22.37ZM607.38,256.8c0-6.03-1.44-10.86-4.33-14.49-2.89-3.63-7.28-5.45-13.18-5.45h-7.98v39.69h7.88c6.03,0,10.47-1.75,13.33-5.25,2.85-3.5,4.28-8.33,4.28-14.49Z"/>
              <path class="cls-10" d="M709.52,256.7c0,10.57-3.7,19.44-11.09,26.6-7.39,7.17-16.41,10.75-27.04,10.75s-19.2-3.52-26.65-10.55c-7.46-7.04-11.19-15.68-11.19-25.92,0-5.45.94-10.57,2.82-15.37.97-2.59,2.53-5.28,4.67-8.07,7.52-9.86,17.67-14.79,30.45-14.79,10.57,0,19.55,3.6,26.94,10.8,7.39,7.2,11.09,16.05,11.09,26.56ZM691.13,256.8c0-5.77-1.83-10.76-5.5-14.98-3.66-4.21-8.35-6.32-14.06-6.32s-10.49,2.06-14.15,6.18c-3.66,4.12-5.5,9.06-5.5,14.83s1.85,10.94,5.54,15.13c3.7,4.18,8.46,6.27,14.3,6.27s10.28-2.09,13.91-6.27c3.63-4.18,5.45-9.13,5.45-14.83Z"/>
              <path class="cls-10" d="M774.88,292.69h-21.01l-16.63-23.25h-.19v23.25h-17.61v-71.98h22.76c3.24,0,5.89.07,7.93.19,2.04.13,4.44.6,7.2,1.41,2.76.81,5.11,1.99,7.05,3.55,5.9,4.73,8.85,11.28,8.85,19.65,0,5.71-1.6,10.69-4.82,14.93-3.21,4.25-7.57,6.83-13.08,7.73l19.55,24.51ZM755.62,246.58c0-3.31-1.12-5.75-3.36-7.34-2.24-1.59-5.07-2.38-8.51-2.38h-6.71v20.04h6.52c3.7,0,6.63-.84,8.8-2.53,2.17-1.69,3.26-4.28,3.26-7.78Z"/>
              <path class="cls-10" d="M849.3,292.69h-19.94l-3.5-10.41h-25l-3.79,10.41h-19.75l28.89-71.98h14.49l28.6,71.98ZM820.99,267.69l-7.39-24.61h-.29l-7.39,24.61h15.08Z"/>
            </g>
          </g>
          <g>
            <g class="cls-13">
              <path class="cls-14" d="M1077.09,354.55c-16.7,12.58-36.96,24.22-61.54,36.53-110.74-55.5-132.88-97.25-145.26-285.47,20.23-9.05,41.09-16.16,62.39-21.29.83,21.94,3.35,44.01,7.62,65.87,20.02,102.42,74.4,176.5,136.8,204.37Z"/>
              <path class="cls-11" d="M1161.06,105.6c-5.66,86.06-13.08,140.27-29.22,179.27-40.07-4.08-82.55-28.77-115.13-72.06-30.17-40.12-46.47-88.99-47.44-135.28,64.82-8.54,130.64.97,191.79,28.08Z"/>
              <path class="cls-17" d="M1131.84,284.87c-12.14,29.32-29.41,50.6-54.75,69.68-62.4-27.87-116.78-101.95-136.8-204.37-4.27-21.85-6.79-43.93-7.62-65.87,12.09-2.91,24.31-5.18,36.6-6.79.97,46.29,17.28,95.16,47.44,135.28,32.57,43.29,75.05,67.98,115.13,72.06Z"/>
            </g>
            <g>
              <path class="cls-12" d="M1127.14,113.61v32.41h-218.15v-32.4c8.63-3.09,17.34-5.81,26.1-8.14,7.03-1.89,14.09-3.53,21.18-4.93,57.02-11.25,115.64-6.9,170.87,13.06Z"/>
              <path class="cls-2" d="M1127.14,120.68v25.56h-218.15v-25.55c8.63-3.09,17.34-5.81,26.1-8.14,7.03-1.89,14.09-3.53,21.18-4.93,57.02-11.25,115.64-6.9,170.87,13.06Z"/>
            </g>
            <path class="cls-10" d="M1018.19,361.37c-104.14-50.96-122.39-99.49-122.39-226.22,79.85-29.29,165.44-29.29,244.53,0,0,126.73-18.2,175.26-122.14,226.22Z"/>
            <path class="cls-6" d="M1134.44,139.26c-.18,56.19-4.06,100.71-21.44,134.73-16.12,31.57-44.56,55.84-94.81,80.82-20.07-9.95-36.67-19.79-50.39-30.04-20.71-15.44-34.89-31.79-44.62-50.78-11.19-21.84-16.79-48.02-19.42-78.84-1.47-17.17-2.01-35.76-2.07-55.86,37.89-13.41,77.12-20.22,116.66-20.22s78.56,6.79,116.08,20.2Z"/>
            <g class="cls-16">
              <rect class="cls-15" x="1038.12" y="121.52" width="70.49" height="14.94" transform="translate(880.14 1192.67) rotate(-86.56)"/>
            </g>
            <path class="cls-10" d="M1100.3,87.11l-2.07,70.47-28.25-.84,2.07-70.45c.45-15.05-4.99-29.37-15.32-40.32-10.33-10.95-24.3-17.23-39.34-17.68-15.04-.46-29.37,4.99-40.32,15.32-10.95,10.33-17.23,24.3-17.68,39.35l-.52,17.46-.52,17.69-1.04,35.3-28.25-.84.85-28.92,1.14-38.68.08-2.85c.67-22.6,10.09-43.57,26.53-59.08C974.12,7.54,995.62-.63,1018.21.04c22.6.67,43.58,10.09,59.08,26.54,15.51,16.44,23.68,37.94,23.01,60.53Z"/>
            <g class="cls-9">
              <polygon class="cls-15" points="958.87 100.43 958.35 118.11 929.92 123.66 931.06 84.98 958.87 100.43"/>
            </g>
            <path class="cls-4" d="M937.78,203.1c-12.65-24.25-20.03-49.62-22.55-74.48-6.51,1.99-13,4.16-19.44,6.52,0,126.73,18.26,175.27,122.4,226.23,35.41-17.36,60.87-34.43,79.04-54.42-61.22,1.21-124.95-37.72-159.44-103.86Z"/>
            <path class="cls-5" d="M1065.58,285.81l-93.46,46.3c-20.71-15.44-34.89-31.79-44.62-50.78-11.19-21.84-16.79-48.02-19.42-78.84l88.18-52.46,69.32,135.77Z"/>
            <path class="cls-15" d="M1059.28,287.22l-8.22,2.1c-.99.26-2.04.15-2.96-.29l-24.08-11.56c-2.14-1.02-4.71-.15-5.76,1.95l-9.63,19.47c-.69,1.4-2.11,2.31-3.69,2.38l-8.11.33c-1.68.07-3.25-.84-4.03-2.32l-17.46-33.33c-.48-.93-1.3-1.65-2.26-2.03l-4.45-1.72c-1.42-.57-2.45-1.83-2.7-3.32l-7.94-23.55c-.46-2.87,2.05-5.35,4.96-4.88l4.73.78c2.24.37,4.36-1.02,4.89-3.19l7.23-29.4c.09-.34.13-.71.13-1.06l-.34-25.81c13.15,36.74,41.89,84.03,79.69,115.46Z"/>
            <path class="cls-3" d="M1059.28,287.22l-8.22,2.1c-.99.26-2.04.15-2.96-.29l-24.08-11.56c-2.14-1.02-4.71-.15-5.76,1.95l-9.63,19.47c-.69,1.4-2.11,2.31-3.69,2.38l-8.11.33c-1.68.07-3.25-.84-4.03-2.32l-17.46-33.33c-.48-.93-1.3-1.65-2.26-2.03l-4.45-1.72c-1.42-.57-2.45-1.83-2.7-3.32l-7.94-23.55c-.46-2.87,2.05-5.35,4.96-4.88l4.73.78c2.24.37,4.36-1.02,4.89-3.19l7.23-29.4c.09-.34.13-.71.13-1.06l-.34-25.81c13.15,36.74,41.89,84.03,79.69,115.46Z"/>
            <path class="cls-15" d="M1085.33,234.97l-15.03,21.75c-.47.69-.74,1.51-.75,2.34l-.35,22.4c-.02,1.92-1.34,3.58-3.23,4.06l-6.69,1.7c-37.8-31.43-66.53-78.72-79.69-115.46l-.09-7.04c-.04-2.65,2.37-4.69,5-4.25l3.92.64c2.36.39,4.57-1.19,4.96-3.51l.75-4.65c.39-2.33,2.6-3.9,4.96-3.51l27.28,4.46c.95.15,1.83.62,2.48,1.33l27.04,29.1c.55.6.93,1.34,1.07,2.13l3.82,20.84c.18.94.66,1.81,1.4,2.45l22.43,19.61c1.64,1.42,1.94,3.84.71,5.62Z"/>
          </g>
        </g>
      </g>
    </g>
  </g>
</svg>