<?xml version="1.0" encoding="UTF-8"?>
<svg xmlns="http://www.w3.org/2000/svg" xmlns:xlink="http://www.w3.org/1999/xlink" viewBox="0 0 1148.34 391.11">
  <defs>
    <style>
      .cls-1, .cls-2 {
        fill: none;
      }

      .cls-3 {
        fill: url(#radial-gradient);
        opacity: .8;
      }

      .cls-3, .cls-4, .cls-5, .cls-6, .cls-7, .cls-2, .cls-8 {
        mix-blend-mode: multiply;
      }

      .cls-9 {
        fill: url(#linear-gradient-5);
      }

      .cls-10 {
        fill: url(#linear-gradient-2);
      }

      .cls-4 {
        fill: url(#linear-gradient-3);
      }

      .cls-11 {
        isolation: isolate;
      }

      .cls-6 {
        fill: url(#linear-gradient-4);
        opacity: .3;
      }

      .cls-12 {
        fill: #fff;
      }

      .cls-13 {
        mix-blend-mode: screen;
      }

      .cls-14, .cls-8 {
        fill: #9d66cc;
      }

      .cls-7 {
        fill: url(#linear-gradient);
      }

      .cls-15 {
        fill: #9cbadd;
      }

      .cls-16 {
        fill: #004eaa;
      }

      .cls-17 {
        mix-blend-mode: soft-light;
      }

      .cls-2 {
        stroke: #004eaa;
        stroke-miterlimit: 10;
        stroke-width: 24px;
      }

      .cls-18 {
        clip-path: url(#clippath);
      }

      .cls-19 {
        fill: #c7d8eb;
      }

      .cls-20 {
        fill: #e1eaf5;
      }
    </style>
    <radialGradient id="radial-gradient" cx="1005.33" cy="127.32" fx="1005.33" fy="127.32" r="79.26" gradientTransform="translate(0 -254.64) scale(1 3)" gradientUnits="userSpaceOnUse">
      <stop offset=".55" stop-color="#f2f2f2"/>
      <stop offset=".88" stop-color="#9d66cc"/>
    </radialGradient>
    <linearGradient id="linear-gradient" x1="912.95" y1="282.1" x2="1105.79" y2="120.29" gradientUnits="userSpaceOnUse">
      <stop offset=".62" stop-color="#fff"/>
      <stop offset=".67" stop-color="#fcfcfc" stop-opacity=".99"/>
      <stop offset=".72" stop-color="#f4f4f4" stop-opacity=".94"/>
      <stop offset=".76" stop-color="#e7e7e7" stop-opacity=".87"/>
      <stop offset=".81" stop-color="#d4d4d4" stop-opacity=".76"/>
      <stop offset=".86" stop-color="#bcbcbc" stop-opacity=".63"/>
      <stop offset=".9" stop-color="#9f9f9f" stop-opacity=".46"/>
      <stop offset=".95" stop-color="#7c7c7c" stop-opacity=".27"/>
      <stop offset=".99" stop-color="#545454" stop-opacity=".04"/>
      <stop offset="1" stop-color="#4d4d4d" stop-opacity="0"/>
    </linearGradient>
    <clipPath id="clippath">
      <path class="cls-1" d="M1005.46,361.4c-104.15-50.97-122.41-99.5-122.41-226.25,79.86-29.29,165.46-29.29,244.56,0,0,126.74-18.2,175.28-122.15,226.25Z"/>
    </clipPath>
    <linearGradient id="linear-gradient-2" x1="1050.22" y1="152.7" x2="1087.96" y2="87.34" gradientUnits="userSpaceOnUse">
      <stop offset=".12" stop-color="#fff"/>
      <stop offset=".66" stop-color="#b3b3b3" stop-opacity="0"/>
    </linearGradient>
    <linearGradient id="linear-gradient-3" x1="1003.97" y1="165.57" x2="941.2" y2="338.03" gradientUnits="userSpaceOnUse">
      <stop offset=".38" stop-color="#fff"/>
      <stop offset=".9" stop-color="#004eaa"/>
    </linearGradient>
    <linearGradient id="linear-gradient-4" x1="895.33" y1="241.1" x2="1052.85" y2="241.1" gradientUnits="userSpaceOnUse">
      <stop offset=".12" stop-color="#fff"/>
      <stop offset=".66" stop-color="#000"/>
    </linearGradient>
    <linearGradient id="linear-gradient-5" x1="945.21" y1="236.7" x2="1046.55" y2="236.7" gradientUnits="userSpaceOnUse">
      <stop offset=".12" stop-color="#fff"/>
      <stop offset=".66" stop-color="#f2f2f2"/>
    </linearGradient>
  </defs>
  <g class="cls-11">
    <g id="Layer_2" data-name="Layer 2">
      <g id="Layer_1-2" data-name="Layer 1">
        <g>
          <g>
            <polygon class="cls-14" points="950.76 341.63 950.76 352.13 616.55 352.13 618.87 341.63 950.76 341.63"/>
            <polygon class="cls-14" points="950.76 341.63 950.76 352.13 616.55 352.13 618.87 341.63 950.76 341.63"/>
            <polygon class="cls-16" points="1.65 341.63 606.51 341.63 604.19 352.13 1.65 352.13 1.65 341.63"/>
          </g>
          <g>
            <polygon class="cls-14" points="618.78 342.16 968.76 342.16 968.76 352.03 616.42 352.03 618.78 342.16"/>
            <polygon class="cls-14" points="618.78 342.16 968.76 342.16 968.76 352.03 616.42 352.03 618.78 342.16"/>
            <polygon class="cls-16" points="0 342.16 606.17 342.16 603.8 352.03 0 352.03 0 342.16"/>
          </g>
          <path class="cls-8" d="M894.31,341.63c3.16,3.59,6.5,7.09,10.05,10.5h46.41v-10.5h-56.46Z"/>
          <g>
            <path class="cls-15" d="M1064.36,354.58c-16.7,12.58-36.96,24.23-61.55,36.53-110.75-55.51-132.89-97.26-145.28-285.5,20.23-9.05,41.1-16.16,62.4-21.29.83,21.94,3.35,44.02,7.62,65.87,20.02,102.43,74.4,176.52,136.81,204.39Z"/>
            <path class="cls-20" d="M1148.34,105.61c-5.66,86.07-13.08,140.29-29.22,179.28-40.08-4.08-82.56-28.78-115.14-72.07-30.17-40.12-46.48-89-47.45-135.29,64.83-8.54,130.65.97,191.81,28.08Z"/>
            <path class="cls-19" d="M1119.12,284.89c-12.14,29.32-29.41,50.6-54.76,69.69-62.41-27.87-116.79-101.96-136.81-204.39-4.27-21.86-6.79-43.93-7.62-65.87,12.09-2.91,24.31-5.18,36.61-6.79.97,46.29,17.28,95.17,47.45,135.29,32.58,43.29,75.06,67.99,115.14,72.07Z"/>
          </g>
          <g>
            <path class="cls-14" d="M1114.41,113.62v32.41h-218.17v-32.4c8.64-3.09,17.34-5.81,26.11-8.14,7.03-1.89,14.09-3.53,21.18-4.93,57.02-11.25,115.65-6.9,170.88,13.06Z"/>
            <path class="cls-3" d="M1114.41,120.69v32.41h-218.17v-32.4c8.64-3.09,17.34-5.81,26.11-8.14,7.03-1.89,14.09-3.53,21.18-4.93,57.02-11.25,115.65-6.9,170.88,13.06Z"/>
          </g>
          <path class="cls-16" d="M1005.46,361.4c-104.15-50.97-122.41-99.5-122.41-226.25,79.86-29.29,165.46-29.29,244.56,0,0,126.74-18.2,175.28-122.15,226.25Z"/>
          <path class="cls-7" d="M1121.71,139.28c-.18,56.2-4.06,100.72-21.45,134.74-16.12,31.57-44.56,55.85-94.82,80.82-20.07-9.95-36.67-19.8-50.39-30.04-20.72-15.44-34.89-31.8-44.62-50.78-11.19-21.85-16.79-48.03-19.42-78.85-1.47-17.17-2.01-35.77-2.07-55.87,37.9-13.41,77.13-20.22,116.67-20.22s78.56,6.8,116.1,20.2Z"/>
          <g class="cls-18">
            <line class="cls-2" x1="1062.75" y1="93.82" x2="1058.52" y2="164.19"/>
          </g>
          <path class="cls-16" d="M1087.57,87.12l-2.07,70.47-28.25-.84,2.07-70.46c.45-15.05-4.99-29.37-15.32-40.32-10.33-10.95-24.31-17.23-39.35-17.68-15.04-.46-29.37,4.99-40.32,15.32-10.95,10.33-17.23,24.31-17.68,39.36l-.52,17.47-.52,17.69-1.04,35.31-28.25-.84.85-28.92,1.14-38.69.08-2.85c.67-22.6,10.09-43.57,26.53-59.08C961.38,7.54,982.89-.63,1005.48.04c22.6.67,43.59,10.09,59.08,26.54,15.51,16.44,23.68,37.94,23.01,60.53Z"/>
          <g class="cls-5">
            <polygon class="cls-16" points="946.13 100.44 945.62 118.12 917.17 123.67 918.32 84.98 946.13 100.44"/>
          </g>
          <g class="cls-17">
            <g class="cls-13">
              <polygon class="cls-10" points="1085.5 157.58 1057.25 156.75 1059.11 71.32 1087.58 87.12 1085.5 157.58"/>
            </g>
          </g>
          <path class="cls-4" d="M925.04,203.12c-12.65-24.25-20.03-49.63-22.55-74.49-6.51,1.99-13,4.16-19.44,6.52,0,126.74,18.27,175.29,122.41,226.26,35.41-17.36,60.87-34.44,79.05-54.42-61.23,1.21-124.96-37.72-159.46-103.87Z"/>
          <path class="cls-6" d="M1052.85,285.84l-93.47,46.31c-20.72-15.44-34.89-31.8-44.62-50.78-11.19-21.85-16.79-48.03-19.42-78.85l88.18-52.47,69.33,135.79Z"/>
          <path class="cls-9" d="M1046.55,287.25l-8.22,2.1c-.99.26-2.04.15-2.96-.29l-24.08-11.56c-2.14-1.02-4.71-.15-5.76,1.95l-9.63,19.47c-.69,1.4-2.11,2.31-3.69,2.38l-8.11.33c-1.68.07-3.25-.84-4.03-2.32l-17.47-33.33c-.48-.93-1.3-1.65-2.26-2.03l-4.45-1.72c-1.42-.57-2.45-1.83-2.7-3.32l-7.94-23.55c-.46-2.87,2.05-5.35,4.96-4.88l4.73.78c2.24.37,4.36-1.02,4.89-3.19l7.23-29.41c.09-.34.13-.71.13-1.06l-.34-25.81c13.15,36.74,41.89,84.04,79.69,115.47Z"/>
          <path class="cls-12" d="M1072.61,235l-15.03,21.75c-.47.69-.74,1.51-.75,2.34l-.35,22.4c-.02,1.92-1.34,3.58-3.23,4.06l-6.69,1.7c-37.8-31.43-66.54-78.73-79.69-115.47l-.09-7.04c-.04-2.65,2.37-4.69,5.01-4.25l3.92.64c2.36.39,4.57-1.19,4.96-3.51l.75-4.65c.39-2.33,2.6-3.9,4.96-3.51l27.29,4.46c.95.15,1.83.62,2.48,1.33l27.04,29.1c.55.6.93,1.34,1.07,2.13l3.82,20.84c.18.94.66,1.81,1.4,2.45l22.43,19.61c1.64,1.43,1.94,3.84.71,5.62Z"/>
          <g>
            <path class="cls-16" d="M159.4,196.65h-10.53l-5.51-13.32h-18.48l-5.51,13.32h-10.53l21.48-51.62h7.46l21.62,51.62ZM139.94,174.33l-5.86-15.83h-.14l-5.86,15.83h11.86Z"/>
            <path class="cls-16" d="M235.64,177.81c0,5.21-1,9.28-3,12.21-1.72,2.42-3.97,4.3-6.73,5.65-2.77,1.35-5.66,2.02-8.68,2.02s-5.85-.65-8.61-1.95c-2.77-1.3-5.01-3.11-6.73-5.44-2.14-2.84-3.21-7-3.21-12.49v-32.78h9.56v32.78c0,7.3,2.98,10.95,8.93,10.95s8.93-3.65,8.93-10.95v-32.78h9.56v32.78Z"/>
            <path class="cls-16" d="M306.76,153.96h-12.88v42.69h-9.56v-42.69h-12.81v-8.93h35.24v8.93Z"/>
            <path class="cls-16" d="M394.82,170.98c0,7.39-2.64,13.7-7.92,18.9-5.28,5.21-11.64,7.81-19.08,7.81s-13.8-2.6-19.08-7.81c-5.28-5.21-7.92-11.51-7.92-18.9s2.63-13.86,7.88-19.11c5.25-5.25,11.63-7.88,19.11-7.88s13.86,2.63,19.11,7.88c5.25,5.26,7.88,11.63,7.88,19.11ZM385.26,170.91c0-4.93-1.69-9.16-5.06-12.7-3.37-3.53-7.5-5.3-12.38-5.3s-9.01,1.77-12.38,5.3c-3.37,3.54-5.06,7.77-5.06,12.7s1.7,9.02,5.09,12.56c3.39,3.53,7.51,5.3,12.35,5.3s8.95-1.77,12.35-5.3c3.39-3.53,5.09-7.72,5.09-12.56Z"/>
            <path class="cls-16" d="M471.41,196.65h-11.58l-13.67-19.74h-.14v19.74h-9.56v-51.62h15.83c5.49,0,9.67,1.16,12.56,3.49,4.05,3.26,6.07,7.42,6.07,12.49,0,2.23-.44,4.48-1.32,6.73-.88,2.26-2.09,4.13-3.63,5.62-2.09,1.95-4.95,3.37-8.58,4.25l14.02,19.04ZM461.36,161.77c0-2.51-.88-4.44-2.65-5.79-1.77-1.35-3.95-2.02-6.56-2.02h-6.14v15.76h6.14c2.7,0,4.91-.67,6.63-2.02,1.72-1.35,2.58-3.32,2.58-5.93Z"/>
            <path class="cls-16" d="M521.91,196.65h-9.56v-51.62h9.56v51.62Z"/>
            <path class="cls-16" d="M607.57,170.98c0,4.51-1.1,8.84-3.31,12.97-2.21,4.14-5.22,7.25-9.03,9.35-4.05,2.23-9.77,3.35-17.16,3.35h-11.93v-51.62h11.72c9.58,0,16.65,2,21.2,6,2.7,2.37,4.79,5.35,6.28,8.93,1.49,3.58,2.23,7.25,2.23,11.02ZM598.01,170.98c0-2.37-.48-4.7-1.43-6.98-.95-2.28-2.31-4.19-4.08-5.72-1.49-1.35-3.27-2.35-5.34-3-2.07-.65-3.85-1.03-5.34-1.15-1.49-.12-3.53-.17-6.14-.17v33.76h2.02c5.39,0,9.58-.84,12.56-2.51,2.42-1.35,4.31-3.32,5.69-5.93,1.37-2.6,2.06-5.37,2.06-8.3Z"/>
            <path class="cls-16" d="M696.5,196.65h-10.53l-5.51-13.32h-18.48l-5.51,13.32h-10.53l21.48-51.62h7.46l21.62,51.62ZM677.04,174.33l-5.86-15.83h-.14l-5.86,15.83h11.86Z"/>
            <path class="cls-16" d="M777.76,170.98c0,4.51-1.1,8.84-3.31,12.97-2.21,4.14-5.22,7.25-9.03,9.35-4.05,2.23-9.77,3.35-17.16,3.35h-11.93v-51.62h11.72c9.58,0,16.65,2,21.2,6,2.7,2.37,4.79,5.35,6.28,8.93,1.49,3.58,2.23,7.25,2.23,11.02ZM768.21,170.98c0-2.37-.48-4.7-1.43-6.98-.95-2.28-2.31-4.19-4.08-5.72-1.49-1.35-3.27-2.35-5.34-3-2.07-.65-3.85-1.03-5.34-1.15-1.49-.12-3.53-.17-6.14-.17v33.76h2.02c5.39,0,9.58-.84,12.56-2.51,2.42-1.35,4.31-3.32,5.69-5.93,1.37-2.6,2.06-5.37,2.06-8.3Z"/>
            <path class="cls-16" d="M119.73,265.78c-2.08,8.5-6.47,15.34-13.18,20.52-6.71,5.19-14.45,7.78-23.2,7.78-10.51,0-19.46-3.61-26.85-10.85-7.39-7.23-11.09-16.1-11.09-26.6s3.66-19.34,10.99-26.51c7.33-7.17,16.24-10.75,26.75-10.75,6.55,0,12.58,1.46,18.09,4.38,5.51,2.92,10.05,7.1,13.62,12.55,2.59,3.89,4.21,7.82,4.86,11.77h-19.26c-1.43-3.76-3.7-6.79-6.81-9.1-3.11-2.3-6.65-3.45-10.6-3.45-5.64,0-10.26,2.06-13.86,6.18-3.6,4.12-5.4,9.06-5.4,14.83s1.8,10.78,5.4,15.03c3.6,4.25,8.25,6.37,13.96,6.37,3.89,0,7.33-1.1,10.31-3.31,2.98-2.2,5.32-5.16,7-8.85h19.26Z"/>
            <path class="cls-16" d="M171.43,292.73h-42.17v-71.98h42.17v16.15h-24.56v11.19h21.69v16.15h-21.69v12.35h24.56v16.15Z"/>
            <path class="cls-16" d="M238.26,292.73h-21.01l-16.63-23.25h-.19v23.25h-17.61v-71.98h22.76c3.24,0,5.89.07,7.93.19,2.04.13,4.44.6,7.2,1.41,2.76.81,5.11,1.99,7.05,3.55,5.9,4.73,8.85,11.28,8.85,19.65,0,5.71-1.6,10.69-4.82,14.93-3.21,4.25-7.57,6.83-13.08,7.73l19.55,24.51ZM219,246.62c0-3.31-1.12-5.75-3.36-7.34-2.24-1.59-5.07-2.38-8.51-2.38h-6.71v20.04h6.52c3.7,0,6.63-.84,8.8-2.53,2.17-1.69,3.26-4.28,3.26-7.78Z"/>
            <path class="cls-16" d="M289.43,236.89h-16.29v55.83h-18.38v-55.83h-16.39v-16.15h51.07v16.15Z"/>
            <path class="cls-16" d="M315.21,292.73h-18.38v-71.98h18.38v71.98Z"/>
            <path class="cls-16" d="M369.73,236.89h-23.88v12.26h23.1v16.15h-23.1v27.43h-17.61v-71.98h41.49v16.15Z"/>
            <path class="cls-16" d="M398.04,292.73h-18.38v-71.98h18.38v71.98Z"/>
            <path class="cls-16" d="M482.47,265.78c-2.08,8.5-6.47,15.34-13.18,20.52-6.71,5.19-14.45,7.78-23.2,7.78-10.51,0-19.46-3.61-26.85-10.85-7.39-7.23-11.09-16.1-11.09-26.6s3.66-19.34,10.99-26.51c7.33-7.17,16.24-10.75,26.75-10.75,6.55,0,12.58,1.46,18.09,4.38,5.51,2.92,10.05,7.1,13.62,12.55,2.59,3.89,4.21,7.82,4.86,11.77h-19.26c-1.43-3.76-3.7-6.79-6.81-9.1-3.11-2.3-6.65-3.45-10.6-3.45-5.64,0-10.26,2.06-13.86,6.18-3.6,4.12-5.4,9.06-5.4,14.83s1.8,10.78,5.4,15.03c3.6,4.25,8.25,6.37,13.96,6.37,3.89,0,7.33-1.1,10.31-3.31,2.98-2.2,5.32-5.16,7-8.85h19.26Z"/>
            <path class="cls-16" d="M554.45,292.73h-19.94l-3.5-10.41h-25l-3.79,10.41h-19.75l28.89-71.98h14.49l28.6,71.98ZM526.15,267.73l-7.39-24.61h-.29l-7.39,24.61h15.08Z"/>
            <path class="cls-16" d="M623.13,256.54c0,11.74-3.21,20.7-9.63,26.9-6.42,6.19-15.56,9.29-27.43,9.29h-25.19v-71.98h23.83c7.33,0,13.5.92,18.53,2.77,5.02,1.85,9.45,5.4,13.28,10.65,4.41,6.16,6.61,13.62,6.61,22.37ZM604.74,256.83c0-6.03-1.44-10.86-4.33-14.49-2.89-3.63-7.28-5.45-13.18-5.45h-7.98v39.69h7.88c6.03,0,10.47-1.75,13.33-5.25,2.85-3.5,4.28-8.33,4.28-14.49Z"/>
            <path class="cls-16" d="M706.88,256.74c0,10.57-3.7,19.44-11.09,26.6-7.39,7.17-16.41,10.75-27.04,10.75s-19.2-3.52-26.65-10.55c-7.46-7.04-11.19-15.68-11.19-25.92,0-5.45.94-10.57,2.82-15.37.97-2.59,2.53-5.28,4.67-8.07,7.52-9.86,17.67-14.79,30.45-14.79,10.57,0,19.55,3.6,26.94,10.8,7.39,7.2,11.09,16.05,11.09,26.56ZM688.49,256.83c0-5.77-1.83-10.76-5.5-14.98-3.66-4.21-8.35-6.32-14.06-6.32s-10.49,2.06-14.15,6.18c-3.66,4.12-5.5,9.06-5.5,14.83s1.85,10.94,5.54,15.13c3.7,4.18,8.46,6.27,14.3,6.27s10.28-2.09,13.91-6.27c3.63-4.18,5.45-9.13,5.45-14.83Z"/>
            <path class="cls-16" d="M772.24,292.73h-21.01l-16.63-23.25h-.19v23.25h-17.61v-71.98h22.76c3.24,0,5.89.07,7.93.19,2.04.13,4.44.6,7.2,1.41,2.76.81,5.11,1.99,7.05,3.55,5.9,4.73,8.85,11.28,8.85,19.65,0,5.71-1.6,10.69-4.82,14.93-3.21,4.25-7.57,6.83-13.08,7.73l19.55,24.51ZM752.98,246.62c0-3.31-1.12-5.75-3.36-7.34-2.24-1.59-5.07-2.38-8.51-2.38h-6.71v20.04h6.52c3.7,0,6.63-.84,8.8-2.53,2.17-1.69,3.26-4.28,3.26-7.78Z"/>
            <path class="cls-16" d="M846.66,292.73h-19.94l-3.5-10.41h-25l-3.79,10.41h-19.75l28.89-71.98h14.49l28.6,71.98ZM818.35,267.73l-7.39-24.61h-.29l-7.39,24.61h15.08Z"/>
          </g>
        </g>
      </g>
    </g>
  </g>
</svg>